<svg xmlns="http://www.w3.org/2000/svg" width="15" height="18" viewBox="0 0 15 18">
  <g id="Cadeado" transform="translate(-448 -362)">
    <path id="Subtraction_1" data-name="Subtraction 1" d="M13,12H2a2,2,0,0,1-2-2V2A2,2,0,0,1,2,0H13a2,2,0,0,1,2,2v8A2,2,0,0,1,13,12ZM7.5,4A1.5,1.5,0,0,0,7,6.915V9H8V6.915A1.5,1.5,0,0,0,7.5,4Z" transform="translate(448 368)" fill="#fff"/>
    <g id="Rectangle_6" data-name="Rectangle 6" transform="translate(451 362)" fill="none" stroke="#fff" stroke-width="2.5">
      <path d="M4,0H5A4,4,0,0,1,9,4V9A0,0,0,0,1,9,9H0A0,0,0,0,1,0,9V4A4,4,0,0,1,4,0Z" stroke="none"/>
      <path d="M4,1.25H5A2.75,2.75,0,0,1,7.75,4V6.5A1.25,1.25,0,0,1,6.5,7.75h-4A1.25,1.25,0,0,1,1.25,6.5V4A2.75,2.75,0,0,1,4,1.25Z" fill="none"/>
    </g>
  </g>
</svg>
