<svg xmlns="http://www.w3.org/2000/svg" width="16.999" height="11" viewBox="0 0 16.999 11">
  <path id="Subtraction4" d="M27.478,11h-13a1.993,1.993,0,0,1-1.555-.744L19.431,4.8l1.068.642c0,.009.009.018.014.027a.5.5,0,0,0,.428.242.487.487,0,0,0,.072-.005.475.475,0,0,0,.071.005.5.5,0,0,0,.428-.242c.005-.009.011-.018.015-.027l.882-.53,6.517,5.469A1.981,1.981,0,0,1,27.478,11Zm1.941-1.517h0l-6.1-5.119L29.128.872A1.981,1.981,0,0,1,29.478,2V9a2,2,0,0,1-.059.481ZM12.5,9.3v0a2.013,2.013,0,0,1-.023-.3V2a1.983,1.983,0,0,1,.37-1.158l5.676,3.409L12.5,9.3ZM21.014,4.58h0L13.672.169A2,2,0,0,1,14.478,0h13a1.969,1.969,0,0,1,.846.188L21.014,4.58Z" transform="translate(-12.478)" fill="#fff"/>
</svg>
